<?xml version="1.0" encoding="utf-8"?>
<!-- Generator: Adobe Illustrator 15.0.2, SVG Export Plug-In . SVG Version: 6.00 Build 0)  -->
<!DOCTYPE svg PUBLIC "-//W3C//DTD SVG 1.1//EN" "http://www.w3.org/Graphics/SVG/1.1/DTD/svg11.dtd">
<svg version="1.1" id="Layer_1" xmlns="http://www.w3.org/2000/svg" xmlns:xlink="http://www.w3.org/1999/xlink" x="0px" y="0px"
	 width="56px" height="40px" viewBox="0 0 56 40" enable-background="new 0 0 56 40" xml:space="preserve">
<g>
	<g>
		<path fill="#010101" d="M-213.679,37.914c-1.809,0-3.982-0.34-5.593-0.988l0.396-1.979c1.723,0.537,3.53,0.82,5.254,0.82
			c3.022,0,3.645-0.791,3.645-2.938c0-2.543-0.029-2.769-3.898-3.645c-4.549-1.017-5.085-1.893-5.085-5.791
			c0-3.277,1.356-4.858,6.017-4.858c1.64,0,3.588,0.226,5.086,0.622l-0.197,2.062c-1.498-0.339-3.277-0.537-4.831-0.537
			c-3.08,0-3.644,0.621-3.644,2.796c0,2.599,0,2.712,3.729,3.644c4.999,1.243,5.253,1.977,5.253,5.65
			C-207.549,36.05-208.509,37.914-213.679,37.914z"/>
		<path fill="#010101" d="M-204.583,21.671v-3.418h2.373v3.418H-204.583z M-204.583,37.631V23.875h2.373v13.756H-204.583
			L-204.583,37.631z"/>
		<path fill="#010101" d="M-199.13,28.084c0-2.74,1.241-4.492,4.462-4.492c1.216,0,2.825,0.197,3.927,0.424v-5.764l2.372-0.338
			v19.716h-2.005l-0.197-1.242c-1.131,0.904-2.74,1.525-4.549,1.525c-2.711,0-4.01-1.439-4.01-4.207V28.084L-199.13,28.084z
			 M-190.741,26.106c-1.271-0.254-2.826-0.424-3.784-0.424c-1.583,0-2.231,0.735-2.231,2.402v5.623c0,1.411,0.449,2.117,2.117,2.117
			c1.355,0,2.881-0.734,3.898-1.639V26.106z"/>
		<path fill="#010101" d="M-179.669,35.881c1.357,0,2.854-0.254,4.352-0.648l0.31,1.891c-1.298,0.48-3.136,0.791-4.858,0.791
			c-4.067,0-5.451-1.948-5.451-5.057v-4.124c0-2.854,1.299-5.142,5.395-5.142c4.068,0,5.17,2.344,5.17,5.198v2.882h-8.191v1.158
			C-182.944,35.004-182.352,35.881-179.669,35.881z M-182.944,29.695h5.903v-1.131c0-1.92-0.648-2.994-2.882-2.994
			c-2.23,0-3.021,1.074-3.021,2.994V29.695L-182.944,29.695z"/>
		<path fill="#010101" d="M-166.222,32.914v-4.321c0-3.164,1.187-5,5.48-5c1.214,0,2.569,0.198,3.277,0.424l-0.197,1.977
			c-1.075-0.226-2.064-0.311-3.023-0.311c-2.374,0-3.164,0.678-3.164,2.825v4.492c0,2.147,0.79,2.825,3.164,2.825
			c0.959,0,1.949-0.086,3.023-0.311l0.225,1.977c-0.705,0.227-2.091,0.424-3.305,0.424
			C-165.149,37.914-166.222,36.078-166.222,32.914z"/>
		<path fill="#010101" d="M-144.642,37.631h-2.004l-0.142-1.016c-1.215,0.848-2.796,1.299-4.464,1.299
			c-2.571,0-3.644-1.525-3.644-3.955c0-2.853,1.442-3.869,4.209-3.869h3.673v-2.147c0-1.723-0.764-2.317-2.994-2.317
			c-1.328,0-3.051,0.227-4.127,0.453l-0.253-1.893c1.3-0.339,3.052-0.593,4.521-0.593c3.926,0,5.225,1.525,5.225,4.463V37.631
			L-144.642,37.631z M-147.013,32.066h-3.504c-1.469,0-2.006,0.451-2.006,1.836c0,1.414,0.256,1.979,1.951,1.979
			c1.186,0,2.512-0.451,3.559-1.131V32.066z"/>
		<path fill="#010101" d="M-135.317,25.768c-1.3,0.622-2.797,1.582-3.928,2.373v9.491h-2.372V23.875h2.062l0.141,1.921
			c1.018-0.791,2.43-1.638,3.786-2.204L-135.317,25.768z"/>
	</g>
	<g>
		
			<linearGradient id="SVGID_1_" gradientUnits="userSpaceOnUse" x1="265.4629" y1="-443.9399" x2="265.4629" y2="-439.6385" gradientTransform="matrix(1 0 0 -1 -436 -412)">
			<stop  offset="0" style="stop-color:#F05423"/>
			<stop  offset="0.896" style="stop-color:#F05423"/>
			<stop  offset="1" style="stop-color:#F05423"/>
		</linearGradient>
		<path fill="url(#SVGID_1_)" d="M-168.486,29.656c0-1.134-0.921-2.053-2.053-2.053c-1.135,0-2.052,0.918-2.052,2.053
			c0,1.134,0.917,2.052,2.052,2.052C-169.407,31.708-168.486,30.79-168.486,29.656z"/>
	</g>
</g>
<g>
	<defs>
		<rect id="SVGID_2_" width="56" height="40"/>
	</defs>
	<clipPath id="SVGID_3_">
		<use xlink:href="#SVGID_2_"  overflow="visible"/>
	</clipPath>
	<circle clip-path="url(#SVGID_3_)" fill="#FFFFFF" cx="29.001" cy="27" r="17"/>
	<g clip-path="url(#SVGID_3_)">
		<path fill="#F05323" d="M28.61,54.35c-14.922,0-27.06-12.139-27.06-27.06c0-14.92,12.138-27.059,27.06-27.059
			c14.919,0,27.058,12.139,27.058,27.059C55.668,42.211,43.529,54.35,28.61,54.35z M28.61,10.253
			c-9.395,0-17.038,7.644-17.038,17.037c0,9.395,7.644,17.038,17.038,17.038c9.394,0,17.036-7.644,17.036-17.038
			C45.646,17.896,38.004,10.253,28.61,10.253z"/>
		
			<text transform="matrix(0.9186 0.3952 -0.3952 0.9186 17.332 32.2881)" fill="#F05323" font-family="'MyriadPro-Bold'" font-size="38.0812">s</text>
	</g>
</g>
</svg>
