<?xml version="1.0" encoding="utf-8"?>
<!-- Generator: Adobe Illustrator 15.0.2, SVG Export Plug-In . SVG Version: 6.00 Build 0)  -->
<!DOCTYPE svg PUBLIC "-//W3C//DTD SVG 1.1//EN" "http://www.w3.org/Graphics/SVG/1.1/DTD/svg11.dtd">
<svg version="1.1" id="Layer_1" xmlns="http://www.w3.org/2000/svg" xmlns:xlink="http://www.w3.org/1999/xlink" x="0px" y="0px"
	 width="83.954px" height="20px" viewBox="0 0 83.954 20" enable-background="new 0 0 83.954 20" xml:space="preserve">
<g>
	<g>
		<path fill="#010101" d="M5.593,20C3.784,20,1.61,19.66,0,19.011l0.396-1.979c1.723,0.537,3.53,0.82,5.254,0.82
			c3.022,0,3.645-0.791,3.645-2.938c0-2.543-0.029-2.769-3.898-3.645C0.847,10.254,0.311,9.378,0.311,5.48
			c0-3.277,1.356-4.858,6.017-4.858c1.64,0,3.588,0.226,5.086,0.622l-0.197,2.062C9.718,2.966,7.938,2.769,6.385,2.769
			c-3.08,0-3.644,0.621-3.644,2.796c0,2.599,0,2.712,3.729,3.644c4.999,1.243,5.253,1.977,5.253,5.65
			C11.723,18.135,10.763,20,5.593,20z"/>
		<path fill="#010101" d="M14.688,3.757V0.338h2.373v3.418H14.688z M14.688,19.716V5.96h2.373v13.756H14.688L14.688,19.716z"/>
		<path fill="#010101" d="M20.142,10.17c0-2.74,1.241-4.492,4.462-4.492c1.216,0,2.825,0.197,3.927,0.424V0.338L30.902,0v19.716
			h-2.005L28.7,18.474C27.569,19.378,25.96,20,24.151,20c-2.711,0-4.01-1.439-4.01-4.207V10.17L20.142,10.17z M28.53,8.192
			c-1.271-0.254-2.826-0.424-3.784-0.424c-1.583,0-2.231,0.735-2.231,2.402v5.623c0,1.411,0.449,2.117,2.117,2.117
			c1.355,0,2.881-0.734,3.898-1.639V8.192z"/>
		<path fill="#010101" d="M39.603,17.966c1.357,0,2.854-0.254,4.352-0.648l0.31,1.891C42.966,19.689,41.128,20,39.405,20
			c-4.067,0-5.451-1.948-5.451-5.057v-4.124c0-2.854,1.299-5.142,5.395-5.142c4.068,0,5.17,2.344,5.17,5.198v2.882h-8.191v1.158
			C36.327,17.089,36.92,17.966,39.603,17.966z M36.327,11.781h5.903v-1.131c0-1.92-0.648-2.994-2.882-2.994
			c-2.23,0-3.021,1.074-3.021,2.994V11.781L36.327,11.781z"/>
		<path fill="#010101" d="M53.05,15v-4.321c0-3.164,1.187-5,5.48-5c1.214,0,2.569,0.198,3.277,0.424L61.61,8.079
			c-1.075-0.226-2.064-0.311-3.023-0.311c-2.374,0-3.164,0.678-3.164,2.825v4.492c0,2.147,0.79,2.825,3.164,2.825
			c0.959,0,1.949-0.086,3.023-0.311l0.225,1.977C61.13,19.802,59.744,20,58.53,20C54.122,20,53.05,18.164,53.05,15z"/>
		<path fill="#010101" d="M74.63,19.716h-2.004l-0.142-1.016C71.27,19.548,69.688,20,68.021,20c-2.571,0-3.644-1.525-3.644-3.955
			c0-2.853,1.442-3.869,4.209-3.869h3.673v-2.147c0-1.723-0.764-2.317-2.994-2.317c-1.328,0-3.051,0.227-4.127,0.453l-0.253-1.893
			c1.3-0.339,3.052-0.593,4.521-0.593c3.926,0,5.225,1.525,5.225,4.463V19.716L74.63,19.716z M72.259,14.152h-3.504
			c-1.469,0-2.006,0.451-2.006,1.836c0,1.414,0.256,1.979,1.951,1.979c1.186,0,2.512-0.451,3.559-1.131V14.152z"/>
		<path fill="#010101" d="M83.954,7.853c-1.3,0.622-2.797,1.582-3.928,2.373v9.491h-2.372V5.96h2.062l0.141,1.921
			c1.018-0.791,2.43-1.638,3.786-2.204L83.954,7.853z"/>
	</g>
	<g>
		
			<linearGradient id="SVGID_1_" gradientUnits="userSpaceOnUse" x1="484.7344" y1="-461.8545" x2="484.7344" y2="-457.5531" gradientTransform="matrix(1 0 0 -1 -436 -447.8291)">
			<stop  offset="0" style="stop-color:#F05423"/>
			<stop  offset="0.896" style="stop-color:#F05423"/>
			<stop  offset="1" style="stop-color:#F05423"/>
		</linearGradient>
		<path fill="url(#SVGID_1_)" d="M50.785,11.742c0-1.134-0.921-2.053-2.053-2.053c-1.135,0-2.052,0.918-2.052,2.053
			c0,1.134,0.917,2.052,2.052,2.052C49.864,13.793,50.785,12.875,50.785,11.742z"/>
	</g>
</g>
</svg>
