<?xml version="1.0" encoding="utf-8"?>
<!-- Generator: Adobe Illustrator 16.0.0, SVG Export Plug-In . SVG Version: 6.00 Build 0)  -->
<!DOCTYPE svg PUBLIC "-//W3C//DTD SVG 1.1//EN" "http://www.w3.org/Graphics/SVG/1.1/DTD/svg11.dtd">
<svg version="1.1" id="Layer_1" xmlns="http://www.w3.org/2000/svg" xmlns:xlink="http://www.w3.org/1999/xlink" x="0px" y="0px"
	 width="651.5px" height="207px" viewBox="0 0 651.5 207" enable-background="new 0 0 651.5 207" xml:space="preserve">
<g>
	<path fill="#010101" d="M48.266,158.344c-13.777,0-30.355-2.588-42.63-7.537L8.65,135.73c13.136,4.094,26.916,6.246,40.049,6.246
		c23.038,0,27.779-6.027,27.779-22.393c0-19.377-0.221-21.099-29.72-27.776C12.095,84.059,8.004,77.383,8.004,47.671
		c0-24.977,10.34-37.035,45.862-37.035c12.49,0,27.346,1.724,38.757,4.738l-1.507,15.718C79.706,28.506,66.142,27,54.3,27
		c-23.471,0-27.777,4.738-27.777,21.316c0,19.812,0,20.671,28.423,27.775c38.111,9.475,40.046,15.069,40.046,43.065
		C94.992,144.131,87.671,158.344,48.266,158.344z"/>
	<path fill="#010101" d="M117.601,34.535V8.482h18.086v26.053H117.601z M117.601,156.188V51.33h18.086v104.857H117.601
		L117.601,156.188z"/>
	<path fill="#010101" d="M159.155,83.416c0-20.889,9.471-34.237,34.015-34.237c9.264,0,21.533,1.507,29.933,3.231V8.482L241.188,5.9
		v150.288h-15.287l-1.507-9.473c-8.612,6.893-20.885,11.629-34.667,11.629c-20.672,0-30.573-10.979-30.573-32.08L159.155,83.416
		L159.155,83.416z M223.102,68.34c-9.686-1.935-21.533-3.231-28.853-3.231c-12.06,0-17.009,5.601-17.009,18.306v42.849
		c0,10.764,3.442,16.146,16.15,16.146c10.329,0,21.958-5.599,29.712-12.488V68.34z"/>
	<path fill="#010101" d="M307.5,142.842c10.337,0,21.751-1.938,33.162-4.953l2.365,14.426c-9.9,3.66-23.898,6.029-37.034,6.029
		c-31,0-41.55-14.859-41.55-38.543V88.365c0-21.749,9.901-39.187,41.123-39.187c31.002,0,39.4,17.87,39.4,39.617v21.963h-62.438
		v8.827C282.528,136.164,287.049,142.842,307.5,142.842z M282.528,95.688h44.998v-8.615c0-14.639-4.947-22.822-21.959-22.822
		c-17.009,0-23.037,8.183-23.037,22.822L282.528,95.688L282.528,95.688z"/>
	<path fill="#010101" d="M409.992,120.229V87.291c0-24.117,9.043-38.113,41.77-38.113c9.258,0,19.592,1.507,24.979,3.231
		l-1.507,15.071c-8.187-1.723-15.722-2.371-23.037-2.371c-18.089,0-24.116,5.17-24.116,21.532v34.236
		c0,16.363,6.027,21.531,24.116,21.531c7.315,0,14.853-0.648,23.037-2.365l1.72,15.07c-5.377,1.723-15.934,3.229-25.189,3.229
		C418.174,158.344,409.992,144.348,409.992,120.229z"/>
	<path fill="#010101" d="M574.492,156.188h-15.293l-1.076-7.75c-9.252,6.461-21.309,9.906-34.021,9.906
		c-19.593,0-27.771-11.629-27.771-30.146c0-21.747,10.983-29.496,32.083-29.496h27.992V82.336c0-13.134-5.818-17.655-22.828-17.655
		c-10.119,0-23.25,1.724-31.436,3.446L500.209,53.7c9.901-2.583,23.25-4.521,34.443-4.521c29.932,0,39.84,11.626,39.84,34.021
		V156.188L574.492,156.188z M556.406,113.773h-26.703c-11.195,0-15.287,3.439-15.287,13.994c0,10.768,1.941,15.072,14.859,15.072
		c9.045,0,19.162-3.445,27.131-8.613V113.773z"/>
	<path fill="#010101" d="M645.547,65.758c-9.906,4.737-21.32,12.057-29.934,18.085v72.345h-18.084V51.33h15.713l1.08,14.643
		c7.754-6.028,18.514-12.489,28.854-16.795L645.547,65.758z"/>
</g>
<g>
	
		<linearGradient id="SVGID_1_" gradientUnits="userSpaceOnUse" x1="737.0889" y1="516.8057" x2="737.0889" y2="484.0157" gradientTransform="matrix(1 0 0 1 -360 -404)">
		<stop  offset="0" style="stop-color:#F05423"/>
		<stop  offset="0.896" style="stop-color:#F05423"/>
		<stop  offset="1" style="stop-color:#F05423"/>
	</linearGradient>
	<path fill="url(#SVGID_1_)" d="M392.73,95.391c0-8.635-7.008-15.641-15.643-15.641c-8.646,0-15.641,7.005-15.641,15.641
		c0,8.645,6.994,15.644,15.641,15.644C385.723,111.034,392.73,104.035,392.73,95.391z"/>
</g>
<g enable-background="new    ">
	<path fill="#F05425" d="M176.434,197.055h-2.553l-0.18-1.294c-1.546,1.078-3.559,1.653-5.68,1.653
		c-3.271,0-4.637-1.941-4.637-5.033c0-3.631,1.833-4.925,5.356-4.925h4.673v-2.731c0-2.192-0.971-2.947-3.811-2.947
		c-1.689,0-3.883,0.287-5.249,0.574l-0.324-2.408c1.654-0.432,3.883-0.756,5.752-0.756c4.997,0,6.651,1.941,6.651,5.682v12.186
		H176.434z M173.414,189.973h-4.458c-1.87,0-2.553,0.575-2.553,2.338c0,1.797,0.324,2.517,2.48,2.517c1.51,0,3.2-0.575,4.53-1.438
		L173.414,189.973L173.414,189.973z"/>
	<path fill="#F05425" d="M203.363,197.055l-4.242-14.848l-4.242,14.848h-3.883l-3.739-17.508h2.876l2.912,14.523l4.242-14.523h3.667
		l4.242,14.523l2.912-14.523h2.876l-3.739,17.508H203.363z"/>
	<path fill="#F05425" d="M225.08,197.055v-13.373c0-1.149-0.575-1.617-1.69-1.617c-1.294,0-3.99,0.826-5.859,1.797v13.193h-3.02
		v-24.66l3.02-0.433v9.06c1.941-0.936,4.709-1.834,6.758-1.834c2.804,0,3.811,1.763,3.811,4.459v13.408H225.08z"/>
	<path fill="#F05425" d="M239.893,197.414c-5.105,0-7.118-2.912-7.118-6.579v-5.067c0-3.668,2.013-6.58,7.118-6.58
		s7.118,2.912,7.118,6.58v5.067C247.011,194.502,244.998,197.414,239.893,197.414z M239.893,181.812
		c-2.732,0-4.098,1.293-4.098,3.846v5.285c0,2.553,1.366,3.847,4.098,3.847s4.098-1.294,4.098-3.847v-5.285
		C243.991,183.105,242.625,181.812,239.893,181.812z"/>
	<path fill="#F05425" d="M251.866,197.055v-24.66l3.02-0.433v25.093H251.866z"/>
	<path fill="#F05425" d="M266.929,194.826c1.726,0,3.631-0.324,5.537-0.827l0.396,2.408c-1.654,0.61-3.991,1.007-6.184,1.007
		c-5.177,0-6.938-2.48-6.938-6.436v-5.248c0-3.631,1.654-6.543,6.867-6.543c5.177,0,6.579,2.983,6.579,6.615v3.666h-10.425v1.475
		C262.759,193.711,263.514,194.826,266.929,194.826z M262.759,186.953h7.513v-1.438c0-2.445-0.827-3.812-3.667-3.812
		s-3.847,1.366-3.847,3.812L262.759,186.953L262.759,186.953z"/>
	<path fill="#F05425" d="M296.231,197.055v-13.373c0-1.149-0.575-1.617-1.69-1.617c-1.294,0-3.99,0.791-5.859,1.762v13.229h-3.02
		v-17.508h2.445l0.287,1.51c1.941-0.935,4.961-1.869,7.046-1.869c2.804,0,3.811,1.763,3.811,4.459v13.408H296.231z"/>
	<path fill="#F05425" d="M311.115,194.826c1.726,0,3.631-0.324,5.537-0.827l0.395,2.408c-1.653,0.61-3.99,1.007-6.183,1.007
		c-5.177,0-6.938-2.48-6.938-6.436v-5.248c0-3.631,1.654-6.543,6.867-6.543c5.177,0,6.579,2.983,6.579,6.615v3.666h-10.425v1.475
		C306.945,193.711,307.7,194.826,311.115,194.826z M306.945,186.953h7.514v-1.438c0-2.445-0.827-3.812-3.667-3.812
		s-3.847,1.366-3.847,3.812V186.953L306.945,186.953z"/>
	<path fill="#F05425" d="M335.994,197.055l-4.242-14.848l-4.242,14.848h-3.882l-3.739-17.508h2.876l2.912,14.523l4.242-14.523h3.667
		l4.242,14.523l2.912-14.523h2.875l-3.738,17.508H335.994z"/>
	<path fill="#F05425" d="M368.748,197.055l-4.242-14.848l-4.242,14.848h-3.883l-3.738-17.508h2.877l2.912,14.523l4.241-14.523h3.667
		l4.242,14.523l2.912-14.523h2.875l-3.738,17.508H368.748z"/>
	<path fill="#F05425" d="M392.119,197.055h-2.553l-0.181-1.294c-1.546,1.078-3.559,1.653-5.68,1.653
		c-3.271,0-4.638-1.941-4.638-5.033c0-3.631,1.832-4.925,5.355-4.925h4.674v-2.731c0-2.192-0.971-2.947-3.812-2.947
		c-1.688,0-3.882,0.287-5.248,0.574l-0.324-2.408c1.654-0.432,3.884-0.756,5.752-0.756c4.997,0,6.651,1.941,6.651,5.682v12.186
		H392.119z M389.1,189.973h-4.457c-1.869,0-2.554,0.575-2.554,2.338c0,1.797,0.323,2.517,2.479,2.517
		c1.511,0,3.199-0.575,4.531-1.438V189.973L389.1,189.973z"/>
	<path fill="#F05425" d="M401.791,197.055h-1.258l-5.682-17.508h2.984l4.781,15.1l4.854-15.1h2.983l-5.788,17.508l-2.48,7.082h-2.84
		L401.791,197.055z"/>
	<path fill="#F05425" d="M430.409,196.768c-1.078,0.396-2.372,0.646-3.666,0.646c-2.948,0-4.352-1.078-4.352-3.99v-11.359H419.3
		v-2.518h3.092v-4.312l3.021-0.433v4.745h4.962l-0.252,2.518h-4.71v10.856c0,1.294,0.181,1.94,1.798,1.94
		c0.827,0,1.689-0.145,2.804-0.432L430.409,196.768z"/>
	<path fill="#F05425" d="M440.693,197.414c-5.105,0-7.118-2.912-7.118-6.579v-5.067c0-3.668,2.013-6.58,7.118-6.58
		c5.104,0,7.116,2.912,7.116,6.58v5.067C447.811,194.502,445.798,197.414,440.693,197.414z M440.693,181.812
		c-2.732,0-4.1,1.293-4.1,3.846v5.285c0,2.553,1.366,3.847,4.1,3.847c2.73,0,4.098-1.294,4.098-3.847v-5.285
		C444.791,183.105,443.425,181.812,440.693,181.812z"/>
	<path fill="#F05425" d="M473.948,181.309l-2.085,0.396c0.646,0.898,0.935,2.121,0.971,3.486v0.791c0,3.774-2.301,5.969-6.866,5.969
		c-0.646,0-1.258-0.036-1.798-0.108c-0.61,0.505-1.258,1.114-1.258,1.869c0,0.685,0.359,0.937,1.15,1.007
		c1.832,0.18,2.768,0.288,4.961,0.504c3.162,0.323,4.386,1.547,4.386,4.207c0,3.811-1.33,5.067-7.657,5.067
		c-1.618,0-4.386-0.287-6.363-0.826l0.433-2.373c1.833,0.433,4.099,0.72,5.858,0.72c4.458,0,4.891-0.611,4.891-2.445
		c0-1.473-0.539-1.725-2.589-1.904c-1.94-0.18-2.589-0.252-4.638-0.432c-2.589-0.217-3.416-1.582-3.416-3.199
		c0-1.295,0.721-2.373,1.654-3.092c-1.654-0.936-2.444-2.66-2.444-4.961v-0.791c0-3.812,1.833-6.004,6.83-6.004
		c0.898,0,2.121,0.107,2.948,0.358h5.032V181.309L473.948,181.309z M465.968,181.668c-2.912,0-3.99,0.971-3.99,3.561v0.754
		c0,2.66,1.114,3.488,3.99,3.488s3.99-1.188,3.99-3.488v-0.754C469.958,182.675,468.88,181.668,465.968,181.668z"/>
	<path fill="#F05425" d="M484.304,194.826c1.727,0,3.631-0.324,5.536-0.827l0.396,2.408c-1.653,0.61-3.99,1.007-6.185,1.007
		c-5.176,0-6.938-2.48-6.938-6.436v-5.248c0-3.631,1.652-6.543,6.866-6.543c5.177,0,6.578,2.983,6.578,6.615v3.666h-10.426v1.475
		C480.134,193.711,480.889,194.826,484.304,194.826z M480.134,186.953h7.515v-1.438c0-2.445-0.827-3.812-3.667-3.812
		c-2.841,0-3.848,1.366-3.848,3.812V186.953L480.134,186.953z"/>
	<path fill="#F05425" d="M504.438,196.768c-1.078,0.396-2.372,0.646-3.666,0.646c-2.948,0-4.352-1.078-4.352-3.99v-11.359h-3.092
		v-2.518h3.092v-4.312l3.021-0.433v4.745h4.962l-0.252,2.518h-4.71v10.856c0,1.294,0.181,1.94,1.798,1.94
		c0.827,0,1.688-0.145,2.804-0.432L504.438,196.768z"/>
	<path fill="#F05425" d="M528.705,197.055h-2.552l-0.181-1.294c-1.546,1.078-3.56,1.653-5.681,1.653
		c-3.271,0-4.638-1.941-4.638-5.033c0-3.631,1.834-4.925,5.355-4.925h4.674v-2.731c0-2.192-0.971-2.947-3.811-2.947
		c-1.689,0-3.883,0.287-5.249,0.574l-0.323-2.408c1.653-0.432,3.883-0.756,5.752-0.756c4.997,0,6.65,1.941,6.65,5.682v12.186
		H528.705z M525.686,189.973h-4.458c-1.868,0-2.552,0.575-2.552,2.338c0,1.797,0.323,2.517,2.48,2.517
		c1.51,0,3.198-0.575,4.528-1.438L525.686,189.973L525.686,189.973z"/>
	<path fill="#F05425" d="M542.044,181.956c-1.653,0.791-3.559,2.013-4.997,3.021v12.078h-3.02v-17.508h2.624l0.18,2.445
		c1.295-1.008,3.092-2.086,4.817-2.805L542.044,181.956z"/>
	<path fill="#F05425" d="M551.321,197.414c-5.105,0-7.118-2.912-7.118-6.579v-5.067c0-3.668,2.013-6.58,7.118-6.58
		c5.104,0,7.116,2.912,7.116,6.58v5.067C558.438,194.502,556.426,197.414,551.321,197.414z M551.321,181.812
		c-2.732,0-4.1,1.293-4.1,3.846v5.285c0,2.553,1.366,3.847,4.1,3.847c2.73,0,4.098-1.294,4.098-3.847v-5.285
		C555.419,183.105,554.053,181.812,551.321,181.812z"/>
	<path fill="#F05425" d="M566.134,179.547v13.374c0,1.149,0.575,1.617,1.689,1.617c1.295,0,3.991-0.791,5.859-1.763v-13.229h3.021
		v17.508h-2.444l-0.288-1.51c-1.94,0.936-4.961,1.869-7.046,1.869c-2.804,0-3.811-1.762-3.811-4.458v-13.409H566.134z"/>
	<path fill="#F05425" d="M593.026,197.055v-13.373c0-1.149-0.575-1.617-1.689-1.617c-1.295,0-3.99,0.791-5.86,1.762v13.229h-3.02
		v-17.508h2.444l0.288,1.51c1.94-0.935,4.961-1.869,7.046-1.869c2.804,0,3.811,1.763,3.811,4.459v13.408H593.026z"/>
	<path fill="#F05425" d="M600.973,184.902c0-3.485,1.582-5.715,5.682-5.715c1.546,0,3.595,0.252,4.997,0.539v-7.334l3.02-0.432
		v25.094h-2.553l-0.251-1.582c-1.438,1.149-3.487,1.94-5.788,1.94c-3.451,0-5.104-1.833-5.104-5.356v-7.154H600.973z
		 M611.65,182.387c-1.618-0.322-3.597-0.539-4.817-0.539c-2.014,0-2.84,0.936-2.84,3.057v7.154c0,1.797,0.575,2.695,2.696,2.695
		c1.726,0,3.666-0.936,4.961-2.085V182.387L611.65,182.387z"/>
</g>
</svg>
