<?xml version="1.0" encoding="UTF-8" standalone="no"?>
<svg width="130px" height="32px" viewBox="0 0 130 32" version="1.1" xmlns="http://www.w3.org/2000/svg" xmlns:xlink="http://www.w3.org/1999/xlink" xmlns:sketch="http://www.bohemiancoding.com/sketch/ns">
    <title>Slice 4</title>
    <description>Created with Sketch (http://www.bohemiancoding.com/sketch)</description>
    <defs></defs>
    <g id="Page 1" stroke="none" stroke-width="1" fill="none" fill-rule="evenodd">
        <g id="Group copy 2">
            <g id="Group copy 6">
                <path d="M23.174271,25.3382091 C23.6304076,24.9123323 24.3690939,24.9106806 24.8269693,25.3382091 L31.1436212,31.2289071 C31.5997578,31.6547838 31.4487749,32 30.8109371,32 L17.190593,32 C16.5504369,32 16.3997437,31.6564356 16.8579089,31.2289071 L23.174271,25.3382091 L23.174271,25.3382091 Z M23.174271,25.3382091" id="Triangle_47_copy_4 copy 2" fill="#AFAFAF"></path>
                <path d="M0,31.6229591 L30.1901364,1.74545455 C30.523755,2.08422782 30.7505887,2.31848685 30.8124201,2.62492528 L31.9677057,8.33304549 C32.0979718,8.97618054 31.8224321,9.87384044 31.3520937,10.3383928 L10.2856142,31.1592967 C9.81527577,31.6232558 8.89651001,32 8.23287358,32 L0.877644914,32 C0.546577082,32 0.245524466,31.8561252 0,31.6229591 Z M0,31.6229591" id="Path copy 2" fill="#D9D9D9"></path>
                <path d="M0,31.1784868 L0,23.8098258 C0,23.1458795 0.376119299,22.2248345 0.839604892,21.7536371 L21.6256751,0.64868546 C22.0894568,0.177788781 22.9856277,-0.0979533986 23.6276959,0.0322498336 L29.3263475,1.18964531 C29.650047,1.25549868 29.969008,1.44914967 30.2222222,1.70835334 L0.319257169,32 C0.121424341,31.7849993 0,31.496327 0,31.1784868 L0,31.1784868 Z M0,31.1784868" id="Path_345_copy_7 copy 2" fill="#AFAFAF"></path>
            </g>
            <path d="M47,25.9338235 L47,14 L49.5174662,14 L49.5174662,23.9044118 L54.4187277,23.9044118 L53.95088,25.9338235 Z M64.3803827,14 L71.9550596,14 L71.5986042,15.9632353 L66.8755704,15.9632353 L66.8755704,18.7205882 L70.8188581,18.7205882 L70.8188581,20.6838235 L66.8978488,20.6838235 L66.8978488,23.8602941 L72.1332873,23.8602941 L72.1332873,25.9338235 L64.3803827,25.9338235 Z M85.2584838,26 L80.6468423,14 L83.4093715,14 L85.6149392,20.1764706 C85.7040535,20.4264718 85.7968795,20.7132337 85.89342,21.0367647 C85.9899605,21.3602957 86.0753604,21.6654397 86.1496223,21.9522059 C86.2238842,22.238972 86.2832928,22.4852931 86.32785,22.6911765 L86.4169638,22.9779412 L86.4837992,22.6911765 C86.5283564,22.499999 86.587765,22.2610308 86.6620269,21.9742647 C86.7362888,21.6874986 86.8216887,21.3823546 86.9182292,21.0588235 C87.0147697,20.7352925 87.1150218,20.4485307 87.2189885,20.1985294 L89.6027838,14 L92.2093639,14 L87.5086085,26 Z M101.502665,25.9338235 L101.502665,14 L109.077342,14 L108.720887,15.9632353 L103.997853,15.9632353 L103.997853,18.7205882 L107.94114,18.7205882 L107.94114,20.6838235 L104.020131,20.6838235 L104.020131,23.8602941 L109.25557,23.8602941 L109.25557,25.9338235 Z M125.343802,24.0147059 C124.868525,23.294114 124.50836,22.7536783 124.263296,22.3933824 C124.018232,22.0330864 123.814015,21.7573539 123.650638,21.5661765 C123.502115,21.404411 123.338741,21.2647065 123.160512,21.1470588 C122.982284,21.0294112 122.752075,20.9705882 122.46988,20.9705882 L122.46988,25.9338235 L119.996971,25.9338235 L119.996971,14 L124.051651,14 C124.853679,14 125.533166,14.0624994 126.09013,14.1875 C126.647094,14.3125006 127.11865,14.5294102 127.504812,14.8382353 C128.336546,15.5294152 128.752406,16.4117593 128.752406,17.4852941 C128.752406,18.4264753 128.473928,19.19485 127.916964,19.7904412 C127.36,20.3860324 126.650809,20.7279407 125.789371,20.8161765 C125.967599,20.9338241 126.145825,21.1249987 126.324054,21.3897059 C126.517135,21.6397071 126.758482,21.9558804 127.048104,22.3382353 C127.337725,22.7205901 127.623629,23.117645 127.905825,23.5294118 L129.554431,25.9338235 L126.546838,25.9338235 Z M126.145826,17.5294118 C126.145826,17.1617629 126.071565,16.8676482 125.923042,16.6470588 C125.774518,16.4264695 125.58144,16.26103 125.343802,16.1507353 C125.106163,16.0404406 124.838825,15.9705884 124.541777,15.9411765 C124.244729,15.9117646 123.955112,15.8970588 123.672917,15.8970588 L122.46988,15.8970588 L122.46988,19.1838235 L123.561525,19.1838235 C123.873425,19.1838235 124.18532,19.1727942 124.49722,19.1507353 C124.80912,19.1286764 125.087598,19.0625006 125.332662,18.9522059 C125.577727,18.8419112 125.774518,18.6764717 125.923042,18.4558824 C126.071565,18.235293 126.145826,17.9264726 126.145826,17.5294118 Z M126.145826,17.5294118" id="lever copy 5" fill="#3F484B"></path>
        </g>
    </g>
</svg>