<?xml version="1.0" encoding="utf-8"?>
<!-- Generator: Adobe Illustrator 16.0.0, SVG Export Plug-In . SVG Version: 6.00 Build 0)  -->
<!DOCTYPE svg PUBLIC "-//W3C//DTD SVG 1.1//EN" "http://www.w3.org/Graphics/SVG/1.1/DTD/svg11.dtd">
<svg version="1.1" id="Layer_1" xmlns="http://www.w3.org/2000/svg" xmlns:xlink="http://www.w3.org/1999/xlink" x="0px" y="0px"
	 width="51.507px" height="51.602px" viewBox="0 0 51.507 51.602" enable-background="new 0 0 51.507 51.602" xml:space="preserve">
<path fill="#3D3C43" d="M369.548,18.009h-2.332v-1.101c0-0.002,0-0.005,0-0.007v-2.421c0-0.276-0.225-0.504-0.504-0.504h-2.828
	c-0.279,0-0.504,0.228-0.504,0.504v0.1v2.322v1.105h-8.914v-1.104c0-0.002,0-0.002,0-0.003v-2.421c0-0.276-0.225-0.504-0.504-0.504
	h-2.83c-0.276,0-0.504,0.228-0.504,0.504v0.1v2.322v1.105h-1.918l-9.698,17.835l40.479,0.032L369.548,18.009z"/>
<path fill="#3D3C43" d="M347.472,11.676c2.754-1.652,11.701-1.652,11.701-1.652s8.947,0,11.701,1.651l-1.238,3.442l9.771,4.679
	l4.682-6.882c0,0-8.121-7.436-24.916-7.436s-24.916,7.436-24.916,7.436l4.68,6.882l9.773-4.679L347.472,11.676z"/>
<ellipse fill="#F15625" cx="358.923" cy="24.964" rx="10.709" ry="4.897"/>
<path fill="#3D3C43" d="M379.548,45.764c0,0.318-0.258,0.576-0.576,0.576h-39.459c-0.318,0-0.576-0.258-0.576-0.576v-9.643
	c0-0.318,0.258-0.576,0.576-0.576h39.459c0.318,0,0.576,0.258,0.576,0.576V45.764L379.548,45.764z"/>
<ellipse fill="#3D3C43" cx="358.964" cy="24.964" rx="8.957" ry="3.792"/>
<path fill="#3D3C43" d="M428.673,19.955H383.36v31.9c0,4.134,3.351,7.482,7.481,7.482h30.352v-7.482h7.479L428.673,19.955
	L428.673,19.955z"/>
<path fill="#232323" d="M80.376,19.955v31.9c0,4.134,3.351,7.482,7.481,7.482s7.479-3.353,7.479-7.482v-31.9H80.376z"/>
<path fill="#171717" d="M87.859,57.062c-3.229,0-5.855-2.694-5.855-6.011V19.955h1.551v31.096c0,2.459,1.932,4.46,4.307,4.46
	s4.307-2.001,4.307-4.46V19.955h1.553v31.096C93.716,54.365,91.087,57.062,87.859,57.062z"/>
<path fill="#6F6F74" d="M398.324,19.955"/>
<rect x="87.083" y="19.955" fill="#171717" width="1.551" height="30.915"/>
<rect x="386.078" y="42.33" fill="#171717" width="24.951" height="2.327"/>
<rect x="386.078" y="26.628" fill="#F15625" width="24.951" height="11.327"/>
<polygon fill="#F15625" points="386.078,26.628 386.078,28.955 386.078,37.955 386.078,40.282 411.029,40.282 411.029,37.955 
	411.029,28.955 411.029,26.628 "/>
<rect x="401.572" y="47.165" fill="#171717" width="9.457" height="1.551"/>
<rect x="401.572" y="51.93" fill="#171717" width="9.457" height="1.551"/>
<rect x="386.078" y="47.165" fill="#171717" width="13.729" height="1.551"/>
<rect x="386.078" y="51.93" fill="#171717" width="13.729" height="1.551"/>
<circle fill="#171717" cx="87.859" cy="50.87" r="0.732"/>
<path fill="#3B5795" d="M-252.221,46.216h-8.803V24.909h-4.397v-7.345h4.397v-4.406c0-5.991,2.482-9.554,9.539-9.554h5.873v7.345
	h-3.672c-2.746,0-2.928,1.024-2.928,2.939l-0.011,3.675h6.652l-0.779,7.345h-5.873L-252.221,46.216L-252.221,46.216z"/>
<path fill="#A3A2A2" d="M-252.221,95.874h-8.803V74.568h-4.397v-7.344h4.397v-4.407c0-5.99,2.482-9.553,9.539-9.553h5.873v7.344
	h-3.672c-2.746,0-2.928,1.025-2.928,2.94l-0.011,3.675h6.652l-0.779,7.344h-5.873L-252.221,95.874L-252.221,95.874z"/>
<path fill="#A3A2A2" d="M50.475,11.302c-1.829,0.804-3.772,1.348-5.823,1.589c2.09-1.252,3.695-3.236,4.447-5.609
	c-1.958,1.168-4.123,2.004-6.434,2.464c-1.854-1.966-4.486-3.204-7.406-3.204c-5.59,0-10.142,4.54-10.142,10.144
	c0,0.798,0.091,1.562,0.259,2.314c-8.429-0.428-15.9-4.468-20.894-10.598C3.599,9.9,3.107,11.638,3.107,13.493
	c0,3.521,1.79,6.627,4.514,8.443c-1.66-0.046-3.23-0.506-4.604-1.265c0,0.039,0,0.084,0,0.13c0,4.909,3.501,9.008,8.146,9.946
	c-0.856,0.228-1.751,0.351-2.686,0.351c-0.647,0-1.283-0.063-1.894-0.188c1.284,4.034,5.033,6.974,9.468,7.052
	c-3.463,2.717-7.833,4.344-12.594,4.344c-0.817,0-1.622-0.051-2.425-0.144c4.487,2.875,9.817,4.554,15.551,4.554
	c18.652,0,28.859-15.453,28.859-28.859c0-0.44-0.015-0.868-0.038-1.31C47.388,15.12,49.115,13.33,50.475,11.302z"/>
<path fill="#A3A2A2" d="M50.475,58.299c-1.829,0.804-3.772,1.348-5.823,1.589c2.09-1.252,3.695-3.236,4.447-5.61
	c-1.958,1.168-4.123,2.005-6.434,2.465c-1.854-1.966-4.486-3.204-7.406-3.204c-5.59,0-10.142,4.54-10.142,10.144
	c0,0.798,0.091,1.562,0.259,2.314c-8.429-0.428-15.9-4.469-20.894-10.598c-0.883,1.498-1.375,3.236-1.375,5.092
	c0,3.521,1.79,6.627,4.514,8.443c-1.66-0.046-3.23-0.506-4.604-1.265c0,0.039,0,0.084,0,0.13c0,4.909,3.501,9.008,8.146,9.946
	c-0.856,0.228-1.751,0.351-2.686,0.351c-0.647,0-1.283-0.063-1.894-0.188c1.284,4.034,5.033,6.974,9.468,7.052
	c-3.463,2.717-7.833,4.344-12.594,4.344c-0.817,0-1.622-0.051-2.425-0.144c4.487,2.875,9.817,4.554,15.551,4.554
	c18.652,0,28.859-15.453,28.859-28.859c0-0.44-0.015-0.869-0.038-1.31C47.388,62.117,49.115,60.327,50.475,58.299z"/>
<g>
	<path fill="#F15625" d="M-75.073,44.966l-0.047-0.001l-15.33-1.729l-15.927,1.729c-0.001,0-0.002,0-0.004,0
		c-1.486,0-2.658-1.174-2.658-2.614l2.188-15.971l-2.188-15.352c0-1.468,1.173-2.643,2.617-2.643l16,1.084l15.318-1.083
		c0.001,0,0.001,0,0.001,0c1.473,0,2.646,1.173,2.646,2.616l-1.907,15.377l1.905,15.946C-72.456,43.793-73.629,44.966-75.073,44.966
		z M-106.448,9.225c-0.953,0-1.749,0.797-1.749,1.777l2.243,15.378l-2.245,15.996c0.001,0.955,0.798,1.75,1.778,1.75l15.973-1.734
		l0.046,0.006l15.353,1.729c0.971-0.012,1.756-0.806,1.756-1.776l-2.242-15.672l2.242-15.7c0-0.955-0.799-1.752-1.777-1.752
		L-90.42,10.31L-106.448,9.225z"/>
</g>
<g>
	<path fill="#A3A2A2" d="M-83.502,8.085c-10.104-4.001-21.538,0.948-25.538,11.05c-4.002,10.105,0.946,21.536,11.05,25.538
		c10.105,4.001,21.537-0.945,25.539-11.052C-68.452,23.519-73.398,12.085-83.502,8.085z M-95.077,37.316
		c-6.04-2.393-8.998-9.228-6.605-15.268c2.392-6.039,9.226-8.998,15.268-6.605c6.041,2.393,8.998,9.228,6.604,15.268
		C-82.202,36.749-89.038,39.707-95.077,37.316z"/>
</g>
<path fill="#F15625" d="M-83.036,7.55c-0.008-0.003-0.016-0.006-0.021-0.008c-0.023-0.09-0.068-0.168-0.146-0.218l0.01-0.021
	c-2.469-0.976-5.008-1.435-7.511-1.44c-0.086-0.002-0.175,0-0.262,0c-0.087,0.002-0.174-0.001-0.262,0
	c-2.501,0.005-5.042,0.465-7.509,1.44l0.008,0.021c-0.076,0.049-0.122,0.128-0.145,0.218c-0.007,0.002-0.014,0.005-0.021,0.008
	l0.012,0.026c-0.002,0.015-0.012,0.026-0.012,0.042c0,0.06,0.018,0.113,0.044,0.163l3.292,8.287
	c0.009,0.041,0.022,0.078,0.045,0.112l0,0c0.064,0.103,0.17,0.172,0.299,0.172c0.019,0,0.037-0.009,0.055-0.011l0.004,0.011
	c1.374-0.544,2.822-0.816,4.242-0.82c1.387,0.021,2.797,0.292,4.136,0.82l0.004-0.011c0.019,0.002,0.036,0.011,0.055,0.011
	c0.13,0,0.236-0.069,0.3-0.172l0,0c0.021-0.035,0.037-0.071,0.045-0.112l3.293-8.287c0.025-0.05,0.045-0.104,0.045-0.163
	c0-0.016-0.01-0.027-0.014-0.042L-83.036,7.55z"/>
<path fill="#F15625" d="M-98.895,45.174c0.008,0.003,0.015,0.004,0.022,0.008c0.022,0.088,0.068,0.167,0.144,0.218l-0.008,0.021
	c2.467,0.976,5.009,1.436,7.508,1.438c0.088,0.003,0.176,0,0.263,0.002c0.086-0.002,0.176,0.001,0.262-0.002
	c2.502-0.003,5.043-0.463,7.51-1.438l-0.01-0.021c0.076-0.051,0.123-0.128,0.146-0.218c0.008-0.004,0.014-0.005,0.021-0.008
	l-0.012-0.029c0-0.014,0.012-0.024,0.012-0.041c0-0.059-0.019-0.111-0.045-0.162l-3.293-8.285c-0.008-0.042-0.021-0.08-0.045-0.113
	l0,0c-0.063-0.103-0.17-0.173-0.299-0.173c-0.02,0-0.037,0.01-0.056,0.013l-0.005-0.013c-1.373,0.543-2.82,0.815-4.243,0.82
	c-1.385-0.021-2.796-0.291-4.133-0.82l-0.005,0.013c-0.017-0.003-0.035-0.013-0.055-0.013c-0.128,0-0.234,0.07-0.299,0.173l0,0
	c-0.022,0.033-0.036,0.071-0.045,0.113l-3.292,8.285c-0.026,0.052-0.044,0.104-0.044,0.162c0,0.017,0.01,0.027,0.013,0.041
	L-98.895,45.174z"/>
<path fill="#F15625" d="M-71.935,34.289c0.004-0.006,0.006-0.013,0.011-0.021c0.086-0.021,0.166-0.068,0.217-0.145l0.02,0.01
	c0.977-2.468,1.436-5.01,1.439-7.51c0.004-0.087,0-0.175,0.002-0.263c-0.002-0.088,0.002-0.176-0.002-0.263
	c-0.004-2.501-0.465-5.042-1.439-7.508l-0.02,0.008c-0.051-0.076-0.129-0.124-0.217-0.145c-0.005-0.007-0.007-0.016-0.011-0.021
	l-0.026,0.011c-0.016-0.001-0.025-0.011-0.043-0.011c-0.059,0-0.113,0.019-0.162,0.043l-8.287,3.293
	c-0.041,0.01-0.078,0.023-0.11,0.045h-0.001c-0.102,0.064-0.173,0.171-0.173,0.299c0,0.021,0.008,0.036,0.012,0.056l-0.012,0.004
	c0.543,1.373,0.815,2.822,0.821,4.243c-0.021,1.385-0.291,2.797-0.821,4.134l0.012,0.005c-0.004,0.019-0.012,0.035-0.012,0.055
	c0,0.129,0.071,0.235,0.173,0.301h0.001c0.032,0.021,0.069,0.035,0.11,0.045l8.287,3.293c0.051,0.024,0.104,0.042,0.162,0.042
	c0.018,0,0.027-0.009,0.043-0.012L-71.935,34.289z"/>
<path fill="#F15625" d="M-109.558,18.432c-0.003,0.007-0.006,0.014-0.009,0.021c-0.089,0.021-0.167,0.068-0.219,0.144l-0.019-0.008
	c-0.977,2.466-1.436,5.008-1.44,7.508c-0.003,0.088,0,0.176-0.001,0.263c0.001,0.087-0.002,0.177,0.001,0.263
	c0.004,2.5,0.463,5.042,1.44,7.51l0.019-0.01c0.051,0.076,0.129,0.123,0.219,0.145c0.003,0.01,0.005,0.017,0.009,0.021l0.027-0.012
	c0.015,0.001,0.026,0.012,0.042,0.012c0.058,0,0.114-0.019,0.162-0.043l8.288-3.293c0.041-0.011,0.078-0.022,0.113-0.046l0,0
	c0.102-0.062,0.172-0.17,0.172-0.3c0-0.02-0.008-0.036-0.011-0.056l0.011-0.003c-0.542-1.374-0.816-2.822-0.82-4.243
	c0.02-1.387,0.29-2.797,0.82-4.134l-0.011-0.004c0.003-0.019,0.011-0.036,0.011-0.056c0-0.128-0.07-0.234-0.172-0.299l0,0
	c-0.035-0.021-0.072-0.036-0.113-0.046l-8.288-3.292c-0.049-0.023-0.104-0.043-0.162-0.043c-0.016,0-0.027,0.009-0.042,0.011
	L-109.558,18.432z"/>
<g>
	<path fill="#5E5D5D" d="M-75.073,93.175l-0.047-0.001l-15.33-1.729l-15.927,1.729c-0.001,0-0.002,0-0.004,0
		c-1.486,0-2.658-1.174-2.658-2.614l2.188-15.971l-2.188-15.352c0-1.469,1.173-2.643,2.617-2.643l16,1.084l15.318-1.084
		c0.001,0,0.001,0,0.001,0c1.473,0,2.646,1.174,2.646,2.616l-1.907,15.377l1.905,15.946C-72.456,92.002-73.629,93.175-75.073,93.175
		z M-106.448,57.434c-0.953,0.001-1.749,0.798-1.749,1.777l2.243,15.378l-2.245,15.996c0.001,0.955,0.798,1.75,1.778,1.75
		l15.973-1.734l0.046,0.006l15.353,1.729c0.971-0.012,1.756-0.805,1.756-1.776l-2.242-15.672l2.242-15.7
		c0-0.955-0.799-1.752-1.777-1.752l-15.349,1.083L-106.448,57.434z"/>
</g>
<g>
	<path fill="#A3A2A2" d="M-83.502,56.294c-10.104-4.001-21.538,0.948-25.538,11.05c-4.002,10.105,0.946,21.536,11.05,25.538
		c10.105,4.001,21.537-0.945,25.539-11.052C-68.452,71.729-73.398,60.294-83.502,56.294z M-95.077,85.525
		c-6.04-2.393-8.998-9.228-6.605-15.268c2.392-6.039,9.226-8.997,15.268-6.604c6.041,2.392,8.998,9.228,6.604,15.268
		C-82.202,84.958-89.038,87.916-95.077,85.525z"/>
</g>
<path fill="#5E5D5D" d="M-83.036,55.759c-0.008-0.003-0.016-0.007-0.021-0.009c-0.023-0.09-0.068-0.168-0.146-0.217l0.01-0.021
	c-2.469-0.976-5.008-1.434-7.511-1.438c-0.086-0.003-0.175,0-0.262,0c-0.087,0.001-0.174-0.003-0.262,0
	c-2.501,0.004-5.042,0.464-7.509,1.438l0.008,0.021c-0.076,0.049-0.122,0.127-0.145,0.217c-0.007,0.002-0.014,0.006-0.021,0.009
	l0.012,0.026c-0.002,0.016-0.012,0.026-0.012,0.042c0,0.06,0.018,0.113,0.044,0.163l3.292,8.286
	c0.009,0.041,0.022,0.078,0.045,0.113l0,0c0.064,0.103,0.17,0.172,0.299,0.172c0.019,0,0.037-0.009,0.055-0.012l0.004,0.012
	c1.374-0.544,2.822-0.816,4.242-0.82c1.387,0.021,2.797,0.292,4.136,0.82l0.004-0.012c0.019,0.003,0.036,0.012,0.055,0.012
	c0.13,0,0.236-0.069,0.3-0.172l0,0c0.021-0.035,0.037-0.072,0.045-0.113l3.293-8.286c0.025-0.05,0.045-0.104,0.045-0.163
	c0-0.016-0.01-0.026-0.014-0.042L-83.036,55.759z"/>
<path fill="#5E5D5D" d="M-98.895,93.383c0.008,0.003,0.015,0.004,0.022,0.008c0.022,0.088,0.068,0.167,0.144,0.218l-0.008,0.021
	c2.467,0.976,5.009,1.436,7.508,1.438c0.088,0.003,0.176,0,0.263,0.002c0.086-0.002,0.176,0.001,0.262-0.002
	c2.502-0.003,5.043-0.463,7.51-1.438l-0.01-0.021c0.076-0.051,0.123-0.128,0.146-0.218c0.008-0.004,0.014-0.005,0.021-0.008
	l-0.012-0.029c0-0.014,0.012-0.024,0.012-0.041c0-0.059-0.019-0.111-0.045-0.162l-3.293-8.285c-0.008-0.042-0.021-0.08-0.045-0.113
	l0,0c-0.063-0.103-0.17-0.173-0.299-0.173c-0.02,0-0.037,0.01-0.056,0.013l-0.005-0.013c-1.373,0.543-2.82,0.815-4.243,0.82
	c-1.385-0.021-2.796-0.291-4.133-0.82l-0.005,0.013c-0.017-0.003-0.035-0.013-0.055-0.013c-0.128,0-0.234,0.07-0.299,0.173l0,0
	c-0.022,0.033-0.036,0.071-0.045,0.113l-3.292,8.285c-0.026,0.052-0.044,0.104-0.044,0.162c0,0.017,0.01,0.027,0.013,0.041
	L-98.895,93.383z"/>
<path fill="#5E5D5D" d="M-71.935,82.498c0.004-0.006,0.006-0.013,0.011-0.021c0.086-0.021,0.166-0.068,0.217-0.145l0.02,0.01
	c0.977-2.468,1.436-5.01,1.439-7.51c0.004-0.087,0-0.175,0.002-0.263c-0.002-0.088,0.002-0.176-0.002-0.263
	c-0.004-2.501-0.465-5.042-1.439-7.508l-0.02,0.008c-0.051-0.076-0.129-0.123-0.217-0.145c-0.005-0.008-0.007-0.017-0.011-0.021
	l-0.026,0.012c-0.016-0.002-0.025-0.012-0.043-0.012c-0.059,0-0.113,0.019-0.162,0.043l-8.287,3.293
	c-0.041,0.01-0.078,0.023-0.11,0.046h-0.001c-0.102,0.064-0.173,0.171-0.173,0.301c0,0.02,0.008,0.034,0.012,0.055l-0.012,0.004
	c0.543,1.373,0.815,2.822,0.821,4.243c-0.021,1.385-0.291,2.797-0.821,4.134l0.012,0.005c-0.004,0.02-0.012,0.035-0.012,0.055
	c0,0.13,0.071,0.235,0.173,0.301h0.001c0.032,0.021,0.069,0.035,0.11,0.045l8.287,3.293c0.051,0.024,0.104,0.042,0.162,0.042
	c0.018,0,0.027-0.008,0.043-0.012L-71.935,82.498z"/>
<path fill="#5E5D5D" d="M-109.558,66.641c-0.003,0.007-0.006,0.014-0.009,0.021c-0.089,0.021-0.167,0.067-0.219,0.145l-0.019-0.008
	c-0.977,2.466-1.436,5.008-1.44,7.508c-0.003,0.088,0,0.176-0.001,0.263c0.001,0.088-0.002,0.177,0.001,0.263
	c0.004,2.5,0.463,5.042,1.44,7.51l0.019-0.01c0.051,0.076,0.129,0.123,0.219,0.145c0.003,0.01,0.005,0.017,0.009,0.021l0.027-0.012
	c0.015,0.001,0.026,0.012,0.042,0.012c0.058,0,0.114-0.019,0.162-0.043l8.288-3.293c0.041-0.011,0.078-0.022,0.113-0.046l0,0
	c0.102-0.062,0.172-0.169,0.172-0.3c0-0.02-0.008-0.035-0.011-0.056l0.011-0.003c-0.542-1.374-0.816-2.822-0.82-4.243
	c0.02-1.387,0.29-2.798,0.82-4.134l-0.011-0.005c0.003-0.02,0.011-0.036,0.011-0.057c0-0.127-0.07-0.233-0.172-0.299l0,0
	c-0.035-0.021-0.072-0.035-0.113-0.045l-8.288-3.293c-0.049-0.023-0.104-0.043-0.162-0.043c-0.016,0-0.027,0.008-0.042,0.011
	L-109.558,66.641z"/>
<path fill="#A3A2A2" d="M147.121,36.289c-3.115-0.779-9.441-7.105-9.441-7.105s-6.327-6.328-7.104-9.441l3.309-1.56l-3.6-10.219
	l-8.179,1.557c0,0,0.485,10.999,12.362,22.875c11.875,11.876,22.873,12.362,22.873,12.362l1.56-8.177l-10.221-3.603L147.121,36.289z
	"/>
<path fill="#F15727" d="M136.714,5.102l-0.584,1.246c3.332,1.557,4.771,5.522,3.213,8.854l1.246,0.583
	C142.466,11.763,140.731,6.983,136.714,5.102z"/>
<path fill="#F15727" d="M136.935,14.076l1.204,0.562c1.247-2.669,0.094-5.84-2.572-7.087l-0.562,1.204
	C137.009,9.691,137.873,12.072,136.935,14.076z"/>
<path fill="#F15727" d="M134.528,12.95l1.203,0.562c0.624-1.337,0.05-2.929-1.289-3.554l-0.562,1.204
	C134.552,11.478,134.843,12.277,134.528,12.95z"/>
<path fill="#A3A2A2" d="M147.121,84.985c-3.115-0.778-9.441-7.104-9.441-7.104s-6.327-6.328-7.104-9.442l3.309-1.559l-3.6-10.219
	l-8.179,1.557c0,0,0.485,10.999,12.362,22.875c11.875,11.876,22.873,12.362,22.873,12.362l1.56-8.178l-10.221-3.603L147.121,84.985z
	"/>
<path fill="#A3A2A2" d="M-10.092,5.852V3.465h-46.051v40.701h0.001c0,1.33,1.079,2.409,2.409,2.409h43.641
	c1.33,0,2.408-1.079,2.408-2.409V5.852H-10.092z"/>
<rect x="-53.495" y="6.923" fill="#5E5D5D" width="40.994" height="3.417"/>
<rect x="-53.495" y="17.173" fill="#5E5D5D" width="19.583" height="1.891"/>
<rect x="-53.495" y="22.846" fill="#5E5D5D" width="19.583" height="1.891"/>
<rect x="-53.495" y="28.52" fill="#5E5D5D" width="19.583" height="1.894"/>
<rect x="-53.495" y="34.192" fill="#5E5D5D" width="19.583" height="1.894"/>
<rect x="-53.495" y="39.702" fill="#5E5D5D" width="40.994" height="1.892"/>
<rect x="-31.412" y="17.173" fill="#F05425" width="18.911" height="18.911"/>
<rect x="-29.418" y="19.167" fill="#A3A2A2" width="14.923" height="14.923"/>
<path fill="#5E5D5D" d="M-9.915,5.852v37.831c0,0.21,0.172,0.382,0.382,0.382s0.382-0.172,0.382-0.382V5.852H-9.915z"/>
<path fill="#A3A2A2" d="M-10.092,55.686v-2.387h-46.051V94h0.001c0,1.33,1.079,2.409,2.409,2.409h43.641
	c1.33,0,2.408-1.079,2.408-2.409V55.686H-10.092z"/>
<rect x="-53.495" y="56.757" fill="#5E5D5D" width="40.994" height="3.417"/>
<rect x="-53.495" y="67.007" fill="#5E5D5D" width="19.583" height="1.891"/>
<rect x="-53.495" y="72.68" fill="#5E5D5D" width="19.583" height="1.891"/>
<rect x="-53.495" y="78.354" fill="#5E5D5D" width="19.583" height="1.894"/>
<rect x="-53.495" y="84.026" fill="#5E5D5D" width="19.583" height="1.894"/>
<rect x="-53.495" y="89.536" fill="#5E5D5D" width="40.994" height="1.892"/>
<rect x="-31.412" y="67.007" fill="#5E5D5D" width="18.911" height="18.911"/>
<rect x="-29.418" y="69.001" fill="#A3A2A2" width="14.923" height="14.923"/>
<path fill="#5E5D5D" d="M-9.915,55.686v37.831c0,0.21,0.172,0.382,0.382,0.382s0.382-0.172,0.382-0.382V55.686H-9.915z"/>
</svg>
